<!DOCTYPE svg PUBLIC "-//W3C//DTD SVG 1.1//EN" "http://www.w3.org/Graphics/SVG/1.1/DTD/svg11.dtd">
<!-- Uploaded to: SVG Repo, www.svgrepo.com, Transformed by: SVG Repo Mixer Tools -->
<svg width="800px" height="800px" viewBox="0 0 64 64" fill="none" xmlns="http://www.w3.org/2000/svg">
<g id="SVGRepo_bgCarrier" stroke-width="0"/>
<g id="SVGRepo_tracerCarrier" stroke-linecap="round" stroke-linejoin="round"/>
<g id="SVGRepo_iconCarrier"> <rect x="6" y="12" width="48" height="40" rx="5" fill="#5B86E5"/> <path d="M12.5 20C13.3284 20 14 19.3284 14 18.5C14 17.6716 13.3284 17 12.5 17C11.6716 17 11 17.6716 11 18.5C11 19.3284 11.6716 20 12.5 20Z" fill="white"/> <path d="M17.5 20C18.3284 20 19 19.3284 19 18.5C19 17.6716 18.3284 17 17.5 17C16.6716 17 16 17.6716 16 18.5C16 19.3284 16.6716 20 17.5 20Z" fill="white"/> <path d="M22.5 20C23.3284 20 24 19.3284 24 18.5C24 17.6716 23.3284 17 22.5 17C21.6716 17 21 17.6716 21 18.5C21 19.3284 21.6716 20 22.5 20Z" fill="white"/> <path fill-rule="evenodd" clip-rule="evenodd" d="M31.6383 23.1287L26.6744 40.8715C27.0249 41.3494 27.4161 41.8068 27.8481 42.2388C28.3683 42.759 28.9252 43.22 29.5104 43.6219L35.4888 22.2531C34.1755 22.325 32.8721 22.6169 31.6383 23.1287ZM37.2807 22.2913L31.0619 44.5199C31.5901 44.7734 32.1335 44.9851 32.6869 45.1549L39 22.5895C38.4338 22.4473 37.859 22.3479 37.2807 22.2913Z" fill="white"/> <path fill-rule="evenodd" clip-rule="evenodd" d="M45.8727 42.4585C50.2581 37.351 50.0313 29.6465 45.1924 24.8076C40.1156 19.7308 31.8844 19.7308 26.8076 24.8076C21.7308 29.8844 21.7308 38.1156 26.8076 43.1924C31.6465 48.0313 39.351 48.2581 44.4585 43.8727L46.0202 45.4344C45.4876 46.5496 45.683 47.9256 46.6067 48.8492L53.6777 55.9203C54.8493 57.0919 56.7488 57.0919 57.9204 55.9203C59.0919 54.7487 59.0919 52.8492 57.9204 51.6777L50.8493 44.6066C49.9257 43.6829 48.5496 43.4875 47.4344 44.0202L45.8727 42.4585ZM43.0711 41.0711C46.9763 37.1658 46.9763 30.8342 43.0711 26.9289C39.1658 23.0237 32.8342 23.0237 28.9289 26.9289C25.0237 30.8342 25.0237 37.1658 28.9289 41.0711C32.8342 44.9763 39.1658 44.9763 43.0711 41.0711Z" fill="#FDAFA4"/> </g>
</svg>