<!DOCTYPE svg PUBLIC "-//W3C//DTD SVG 1.1//EN" "http://www.w3.org/Graphics/SVG/1.1/DTD/svg11.dtd">
<!-- Uploaded to: SVG Repo, www.svgrepo.com, Transformed by: SVG Repo Mixer Tools -->
<svg fill="#ffffff" version="1.1" id="Capa_1" xmlns="http://www.w3.org/2000/svg" xmlns:xlink="http://www.w3.org/1999/xlink" width="800px" height="800px" viewBox="0 0 392.189 392.189" xml:space="preserve" stroke="#ffffff">
<g id="SVGRepo_bgCarrier" stroke-width="0"/>
<g id="SVGRepo_tracerCarrier" stroke-linecap="round" stroke-linejoin="round"/>
<g id="SVGRepo_iconCarrier"> <g> <g> <path d="M368.621,17.953H23.568C10.573,17.953,0,28.526,0,41.522v309.146c0,12.996,10.573,23.568,23.568,23.568h345.053 c12.996,0,23.568-10.572,23.568-23.568V41.522C392.189,28.527,381.615,17.953,368.621,17.953z M338.025,57.53 c0-4.806,3.896-8.703,8.702-8.703h8.703c4.806,0,8.701,3.896,8.701,8.703v9.863c0,4.806-3.896,8.702-8.701,8.702h-8.703 c-4.807,0-8.702-3.896-8.702-8.702V57.53z M297.561,57.53c0-4.806,3.896-8.703,8.701-8.703h8.703c4.808,0,8.703,3.896,8.703,8.703 v9.863c0,4.806-3.896,8.702-8.703,8.702h-8.703c-4.805,0-8.701-3.896-8.701-8.702V57.53z M257.094,57.53 c0-4.806,3.896-8.703,8.703-8.703h8.701c4.807,0,8.703,3.896,8.703,8.703v9.863c0,4.806-3.896,8.702-8.703,8.702h-8.701 c-4.807,0-8.703-3.896-8.703-8.702V57.53z M28.282,102.237h335.622v95.583l-9.914-6.561c-1.344-0.889-2.99-1.208-4.566-0.886 c-1.58,0.321-2.969,1.258-3.858,2.603l-12.23,18.489c-6.146-2.297-12.619-3.873-19.305-4.635l-2.515-22.023 c-0.379-3.335-3.395-5.731-6.729-5.351l-24.767,2.827c-3.334,0.38-5.729,3.395-5.352,6.729l2.514,22.023 c-6.342,2.248-12.293,5.241-17.766,8.864l-16.083-15.257c-2.434-2.312-6.284-2.209-8.595,0.227l-17.151,18.084 c-1.111,1.169-1.711,2.732-1.67,4.344c0.045,1.611,0.725,3.142,1.895,4.25l16.098,15.269c-3.348,5.686-6.021,11.791-7.929,18.196 l-22.123-1.349c-3.349-0.204-6.234,2.347-6.438,5.698l-1.519,24.879c-0.096,1.609,0.449,3.19,1.518,4.397 c1.07,1.209,2.57,1.941,4.183,2.041l22.144,1.35c1.12,6.685,3.035,13.055,5.625,19.034l-17.814,13.188 c-1.297,0.959-2.157,2.394-2.396,3.988c-0.235,1.596,0.171,3.219,1.127,4.516l2.368,3.199H28.285V102.237H28.282z M300.775,254.223c18.35-2.094,34.922,11.082,37.016,29.431c2.094,18.347-11.084,34.919-29.434,37.013 c-18.349,2.095-34.92-11.083-37.015-29.43C269.249,272.889,282.428,256.317,300.775,254.223z"/> </g> </g> </g>
</svg>