<?xml version="1.0" encoding="utf-8"?>

<!DOCTYPE svg PUBLIC "-//W3C//DTD SVG 1.1//EN" "http://www.w3.org/Graphics/SVG/1.1/DTD/svg11.dtd">
<!-- Uploaded to: SVG Repo, www.svgrepo.com, Generator: SVG Repo Mixer Tools -->
<svg height="800px" width="800px" version="1.1" id="_x32_" xmlns="http://www.w3.org/2000/svg" xmlns:xlink="http://www.w3.org/1999/xlink" 
	 viewBox="0 0 512 512"  xml:space="preserve">
<style type="text/css">
	.st0{fill:#000000;}
</style>
<g>
	<path class="st0" d="M398.15,393.21l-67.696-27.67c-6.269-3.035-12.237-11.389-12.394-13.959v-22.382
		c0-1.444,0.157-2.888,0.176-3.649c11.605-15.131,49.468-68.467,49.468-119.652c0-70.718-44.889-118.239-111.702-118.239
		c-66.811,0-111.7,47.521-111.7,118.239c0,51.178,37.857,104.514,49.171,119.024c0.312,1.397,0.472,2.834,0.472,4.278l0.002,22.25
		c-0.157,2.671-6.122,11.056-12.304,14.044L113.79,393.24c-20.915,9.612-35.968,28.85-40.25,51.372l-8.074,32.444L256.001,512
		l190.538-34.944l-8.057-32.366C434.173,422.082,419.12,402.852,398.15,393.21z M235.781,400.259c0,4.976,2.938,9.479,7.43,11.56
		v54.578l-50.762-65.594l4.218-1.739c16.375-7.523,34.049-27.817,34.049-47.482v-22.382c0-6.281-1.038-12.476-3.086-18.423
		l-1.24-3.292l-1.852-2.29c-0.435-0.544-43.464-54.609-43.464-99.296c0-60.067,38.705-81.463,74.928-81.463
		s74.93,21.396,74.93,81.463c0,44.338-41.677,97.06-43.447,99.281l-2.133,2.772l-0.969,2.795
		c-2.055,5.947-3.096,12.158-3.096,18.454v22.382c0,19.665,17.676,39.959,34.115,47.513l4.157,1.7l-50.774,65.61
		c0,0,0-54.578,0-54.586c4.491-2.081,7.428-6.584,7.428-11.56c0-7.057-5.735-12.794-12.786-12.794h-14.858
		C241.518,387.464,235.781,393.202,235.781,400.259z"/>
	<path class="st0" d="M231.15,142.035c-1.718,0-3.371,0.396-4.91,1.172c-5.78,2.912-13.043,8.144-16.098,14.114
		c-1.33,2.593-1.574,5.566-0.691,8.354c0.887,2.802,2.807,5.085,5.402,6.405c1.558,0.8,3.292,1.227,5.011,1.227
		c4.088,0,7.785-2.259,9.578-5.768c0.355-0.559,2.675-2.834,6.618-4.821c5.378-2.71,7.55-9.293,4.843-14.673
		C239.038,144.333,235.301,142.035,231.15,142.035z"/>
	<path class="st0" d="M218.398,205.898c0-6.024-4.899-10.923-10.921-10.923c-6.021,0-10.92,4.899-10.92,10.923
		c0,13.602,4.972,30.356,14.784,49.811c1.869,3.711,5.609,6.017,9.759,6.017c1.693,0,3.391-0.412,4.909-1.18
		c5.374-2.71,7.544-9.293,4.835-14.666C222.703,229.732,218.398,215.905,218.398,205.898z"/>
	<path class="st0" d="M255.997,55.859c7.051,0,12.788-5.737,12.788-12.786V12.787c0-7.05-5.737-12.787-12.788-12.787
		c-7.052,0-12.787,5.737-12.787,12.787v30.286C243.211,50.122,248.946,55.859,255.997,55.859z"/>
	<path class="st0" d="M126.769,101.897c2.412,2.414,5.623,3.742,9.043,3.742c3.42,0,6.63-1.328,9.04-3.742
		c2.416-2.414,3.748-5.628,3.748-9.044s-1.332-6.63-3.748-9.045L123.44,62.396c-2.414-2.415-5.624-3.742-9.04-3.742
		c-3.414,0-6.624,1.327-9.041,3.742c-2.416,2.414-3.748,5.628-3.748,9.044s1.332,6.63,3.748,9.044L126.769,101.897z"/>
	<path class="st0" d="M385.228,324.184c-2.412-2.414-5.623-3.742-9.041-3.742c-3.416,0-6.628,1.328-9.042,3.742
		c-2.416,2.414-3.748,5.628-3.748,9.044c0,3.416,1.332,6.622,3.748,9.045l21.41,21.412c2.41,2.414,5.621,3.75,9.042,3.75
		c3.414,0,6.626-1.335,9.041-3.75c2.416-2.415,3.748-5.629,3.748-9.045c0-3.416-1.332-6.622-3.748-9.044L385.228,324.184z"/>
	<path class="st0" d="M98.82,213.04c0-7.05-5.735-12.787-12.787-12.787H55.749c-7.051,0-12.787,5.737-12.787,12.787
		c0,7.049,5.736,12.786,12.787,12.786l30.284,0.008C93.085,225.835,98.82,220.097,98.82,213.04z"/>
	<path class="st0" d="M456.251,200.254h-30.284c-7.051,0-12.788,5.737-12.788,12.787c0,7.057,5.737,12.794,12.788,12.794h30.284
		c7.051,0,12.786-5.738,12.786-12.794C469.037,205.991,463.302,200.254,456.251,200.254z"/>
	<path class="st0" d="M114.399,367.434c3.414,0,6.626-1.335,9.04-3.75l21.422-21.404c4.98-4.992,4.982-13.105,0.002-18.097
		c-2.414-2.414-5.624-3.742-9.04-3.742c-3.414,0-6.628,1.328-9.047,3.742l-21.418,21.412c-2.416,2.414-3.748,5.628-3.748,9.044
		c0,3.416,1.33,6.63,3.742,9.045C107.769,366.099,110.983,367.434,114.399,367.434z"/>
	<path class="st0" d="M376.185,105.647c3.41,0,6.62-1.328,9.041-3.742l21.422-21.412c4.982-4.992,4.982-13.105,0.002-18.089
		c-2.414-2.414-5.625-3.742-9.041-3.742c-3.416,0-6.628,1.328-9.046,3.742l-21.418,21.412c-4.986,4.984-4.988,13.097-0.002,18.089
		C369.561,104.319,372.771,105.647,376.185,105.647z"/>
</g>
</svg>